<svg xmlns="http://www.w3.org/2000/svg" width="47.32" height="47.52" viewBox="0 0 47.32 47.52">
  <g id="Group_112" data-name="Group 112" transform="translate(17030 8177.849)">
    <path id="Path_148" data-name="Path 148" d="M70.24,28.47a23.646,23.646,0,0,1-46.915,2.1C21.177,18.133,29.649,5.77,41.787,3.345A23.753,23.753,0,0,1,70.24,28.47m-44.9-8.161A22.242,22.242,0,1,0,48.158,4.355C37.66,3.77,28.813,9.9,25.338,20.309Z" transform="translate(-17052.992 -8180.709)" fill="#0f0e09"/>
    <path id="Path_164" data-name="Path 164" d="M29.628,24.535C33.073,14.219,41.919,8.092,52.417,8.678A22.307,22.307,0,1,1,29.628,24.535M40.1,42.455c7.126,7.616,21.224,6.52,26-6.48l1.57-.74a7.652,7.652,0,0,0-1.009-1.091,1.834,1.834,0,0,0-1.066-.337,9.964,9.964,0,0,0-1.6.277l.637,1.464c-2.179,6.225-7.56,10.316-13.647,10.252A14.572,14.572,0,0,1,37.534,35.616l.577-1.576a10.851,10.851,0,0,0-1.5-.249,1.552,1.552,0,0,0-.956.269,11.694,11.694,0,0,0-1.176,1.225l1.091.43c1.542,2.313,2.976,4.462,4.535,6.74M45.08,19.33c-.48.428-1.164.764-1.406,1.3a9.132,9.132,0,0,0,.025,7.9c.247.529.965,1.2,1.429,1.172a2.268,2.268,0,0,0,1.549-1.187,9.088,9.088,0,0,0,.012-7.9c-.244-.533-.931-.863-1.608-1.286M59.2,22.416a5.726,5.726,0,0,0-.577-1.645c-.417-.559-1.067-1.331-1.593-1.314-.543.018-1.281.776-1.546,1.38A9.038,9.038,0,0,0,55.5,28.4c.27.6,1.027,1.356,1.561,1.358S58.325,29,58.634,28.4a9.515,9.515,0,0,0,.566-5.984Z" transform="translate(-17057.252 -8185.031)" fill="#fdd100"/>
    <path id="Path_176" data-name="Path 176" d="M57.189,116.864c-1.5-2.214-2.93-4.363-4.472-6.676l-1.091-.43a11.7,11.7,0,0,1,1.176-1.225,1.552,1.552,0,0,1,.956-.269,10.848,10.848,0,0,1,1.5.249l-.577,1.576a14.572,14.572,0,0,0,13.461,10.182c6.087.065,11.469-4.025,13.652-10.251l-.637-1.464a9.965,9.965,0,0,1,1.6-.277,1.834,1.834,0,0,1,1.066.337,7.652,7.652,0,0,1,1.009,1.091l-1.57.74C78.476,123.449,64.378,124.544,57.189,116.864Z" transform="translate(-17074.398 -8259.506)" fill="#0e0c02"/>
    <path id="Path_177" data-name="Path 177" d="M86.924,50.987c.58.423,1.267.753,1.511,1.286a9.088,9.088,0,0,1-.012,7.9,2.268,2.268,0,0,1-1.549,1.187c-.463.028-1.182-.643-1.429-1.172a9.132,9.132,0,0,1-.025-7.9C85.662,51.751,86.346,51.415,86.924,50.987Z" transform="translate(-17098.998 -8216.688)" fill="#060501"/>
    <path id="Path_178" data-name="Path 178" d="M136.138,54.554a9.432,9.432,0,0,1-.589,5.885c-.308.6-1.037,1.352-1.572,1.35s-1.292-.757-1.561-1.358a9.038,9.038,0,0,1-.016-7.559c.265-.6,1-1.362,1.546-1.38.526-.018,1.176.755,1.593,1.314a6.029,6.029,0,0,1,.6,1.748Z" transform="translate(-17134.166 -8217.066)" fill="#060501"/>
  </g>
</svg>
