<svg xmlns="http://www.w3.org/2000/svg" width="613.716" height="47.717" viewBox="0 0 613.716 47.717">
  <g id="LOGO-linier-copy" transform="translate(-22.992 -2.226)">
    <path id="Path_141" data-name="Path 141" d="M997.711,31.665V19.731H983.63v3.35c3.813,0,7.588,0,11.362,0,1.61,0,1.71.1,1.711,1.723,0,3.155-.044,6.312.022,9.466.027,1.253-.308,1.736-1.769,1.71-3.74-.067-7.481-.022-11.318-.022-.022.4-.059.758-.059,1.119q-.006,6.816,0,13.632c0,1.4-.241,1.652-1.673,1.656-3.786.01-7.573,0-11.359.006-1.081,0-1.635-.355-1.632-1.6q.052-21.141,0-42.283c0-1.223.472-1.584,1.637-1.58,8.2.032,16.409-.019,24.612.042,2.036.015,4.07-.032,6.105-.027,2.188.005,4.375,0,6.563,0h13c2.146,0,4.294.06,6.436-.021,1.465-.055,1.8.457,1.771,1.708-.066,3.238-.046,6.479-.009,9.718.012,1.071-.389,1.492-1.472,1.485-5.006-.031-10.013-.014-15.111-.014v3.479c.277.015.635.051.994.052,4.754,0,9.509.024,14.263-.016.945-.008,1.356.184,1.336,1.244-.063,3.323-.055,6.648,0,9.97.015.979-.352,1.2-1.256,1.193-5.087-.035-10.175-.017-15.344-.017v3.728c.313.017.674.054,1.035.054,4.67,0,9.341.041,14.01-.024,1.2-.017,1.731.287,1.547,1.535a3.038,3.038,0,0,0,.173,1.457q1.169-2.8,2.34-5.605,2.46-5.877,4.923-11.753,2.34-5.6,4.669-11.2c.841-2.016,1.63-4.058,2.576-6.024a2.011,2.011,0,0,1,1.495-.908q5.8-.114,11.61,0a1.96,1.96,0,0,1,1.444.962c1.673,3.858,3.227,7.767,4.851,11.647,1.828,4.367,3.708,8.713,5.536,13.081,1.639,3.917,3.238,7.85,4.861,11.774a6.35,6.35,0,0,0,.446.707v-1.5c0-11.654.017-23.308-.022-34.962,0-1.461.459-1.769,1.708-1.768q43.734.04,87.469.021c1.628,0,1.728.1,1.728,1.705,0,3.24-.025,6.479.015,9.719.013,1.09-.428,1.472-1.491,1.466-5-.029-10.009-.013-15.1-.013v3.477c.3.016.659.053,1.02.053,4.712,0,9.425.032,14.136-.02,1.075-.012,1.475.24,1.447,1.393-.077,3.2-.07,6.4,0,9.591.023,1.093-.271,1.449-1.4,1.436-5.043-.059-10.087-.026-15.206-.026v3.728c.335.018.7.054,1.06.054,4.754,0,9.509.029,14.262-.019,1.011-.01,1.3.3,1.286,1.3q-.083,5.047,0,10.1c.021,1.125-.517,1.5-1.472,1.5q-14.2.015-28.4.008c-1.231,0-1.468-.739-1.466-1.784q.022-14.641.009-29.283c0-.456,0-.912,0-1.434h-8.582q0,.671,0,1.342c0,9.719-.02,19.438.021,29.156.006,1.491-.033,2.007-1.985,2-3.576-.008-7.152,0-10.729,0-1.678,0-1.951-.268-1.951-1.919q0-14.641,0-29.283v-1.3h-21.647v3.217h10.953c2.112,0,2.112,0,2.112,2.08,0,3.113-.026,6.227.014,9.34.014,1.085-.418,1.48-1.487,1.47-3.827-.034-7.654-.013-11.594-.013-.021.378-.057.737-.058,1.1,0,4.586-.034,9.172.019,13.757.014,1.174-.512,1.555-1.547,1.555q-12.369,0-24.739,0a1.466,1.466,0,0,1-1.609-1.161c-.589-1.845-1.448-3.6-2.039-5.449-.264-.822-.649-.978-1.407-.972-4.123.029-8.247.067-12.369-.021-1.136-.024-1.454.541-1.76,1.392-.588,1.636-1.3,3.231-1.808,4.89-.36,1.176-1.106,1.344-2.15,1.339-5.385-.026-10.77-.012-16.156-.012h-23.35c-1.73,0-1.972-.25-1.973-2.024,0-6.184,0-12.368,0-18.678m60.809,11.379c.443.428,1.074.775,1.295,1.3.872,2.066,1.615,4.186,2.377,6.207h24.86V49.266c0-4.46.041-8.92-.026-13.379-.019-1.258.467-1.627,1.622-1.615,3.323.033,6.647.012,9.971.012h1.462V24.776h-1.088c-3.45,0-6.9-.021-10.35.012-1.165.011-1.713-.39-1.608-1.63.085-1,.017-2.018.017-3.028,0-1.949.05-2,1.953-2q10.413,0,20.826,0c2.033,0,2.148.113,2.148,2.118q0,14.389,0,28.778v1.489h11.436V49.037c0-9.214-.017-18.428.009-27.642.01-3.438-.663-3.278,3.328-3.27,2.04,0,4.08,0,6.143,0V8.605h-57.371v1.438q0,19.059,0,38.119a5.116,5.116,0,0,1-.047,1.255.989.989,0,0,1-.575.654,1.18,1.18,0,0,1-.854-.347,2.3,2.3,0,0,1-.352-.794q-8.195-19.6-16.361-39.218a1.63,1.63,0,0,0-1.841-1.2c-3.028.064-6.059.073-9.087,0a1.629,1.629,0,0,0-1.816,1.244q-7.622,18.411-15.359,36.774c-.181.431-.763.693-1.158,1.034a4.307,4.307,0,0,1-.552-1.345c-.066-1.707-.026-3.417-.026-5.2h-1.386c-4.586,0-9.173-.041-13.758.027-1.25.018-1.633-.412-1.557-1.6a29.746,29.746,0,0,0,0-3.784c-.075-1.165.36-1.532,1.517-1.519,4.585.053,9.172.022,13.758.022h1.357V24.89h-1.3c-4.628,0-9.256-.026-13.884.019-1.107.011-1.514-.366-1.446-1.467.073-1.174.015-2.355.017-3.533,0-1.662.114-1.78,1.794-1.781q6.753-.007,13.506,0h1.32V8.6H999.388V50.5a2.21,2.21,0,0,0,.418.094q19.627.008,39.254-.026a1.43,1.43,0,0,0,1-.786c.74-1.777,1.44-3.576,2.042-5.4a1.724,1.724,0,0,1,1.93-1.358c4.754.042,9.508.019,14.488.021m82.206,7.562h22.493V41.014c-5.1,0-10.1-.036-15.109.026-1.2.015-1.56-.4-1.5-1.53a30.532,30.532,0,0,0,0-3.784c-.083-1.214.36-1.6,1.577-1.588,4.585.059,9.171.024,13.757.024h1.277V24.89h-.832c-4.8,0-9.593-.02-14.389.016-1.036.008-1.442-.347-1.387-1.394a29.5,29.5,0,0,0-.006-3.784c-.1-1.267.47-1.625,1.621-1.612,3.071.034,6.142.011,9.214.011h5.784V8.615h-28V50.607h5.5m-146.22-25.83c-3.66,0-7.32-.011-10.98.005-1.021,0-1.574-.325-1.511-1.468a35.215,35.215,0,0,0,0-3.785c-.056-1.081.466-1.413,1.433-1.406,2.019.015,4.039,0,6.058,0h6.67v-9.5H970.6V50.508h11.429c0-4.934.037-9.77-.026-14.6-.016-1.236.433-1.649,1.6-1.632,2.65.038,5.3.012,7.951.012h3.582c0-3.092.007-6.03-.017-8.967C995.125,25.139,994.88,24.963,994.506,24.777Z" transform="translate(-707.118 -3.493)" fill="#040300"/>
    <path id="Path_142" data-name="Path 142" d="M1931.063,4.609c8.2,0,16.28,0,24.357,0,1.528,0,1.644.119,1.645,1.661q0,4.8,0,9.591c0,1.5-.128,1.622-1.684,1.622-4.954,0-9.909,0-14.92,0v3.533h6.175c3.113,0,6.226.012,9.339-.009.692,0,1.11.113,1.1.951q-.044,5.237,0,10.475c.01.956-.528.963-1.219.961q-7.068-.018-14.135-.006h-1.274v3.729c.318.017.676.054,1.034.054,4.754,0,9.508.035,14.26-.022,1.083-.013,1.4.332,1.338,1.371a21.441,21.441,0,0,0,.21,4.411c.945-1.629,1.885-3.261,2.838-4.885q1.233-2.1,2.492-4.187a1.083,1.083,0,0,1,1.731-.374,26.5,26.5,0,0,0,8.832,3.625,10.412,10.412,0,0,0,3.637-.018c.522-.072,1.359-.711,1.352-1.081a2.159,2.159,0,0,0-1.032-1.58c-2.055-1.025-4.183-1.908-6.3-2.806-4.138-1.755-7.91-3.9-9.855-8.295s-1.422-10.643,2.282-14.253a17.939,17.939,0,0,1,10.387-4.993c6.6-.934,12.672.661,18.473,3.671a7.555,7.555,0,0,1,.782.586c0-.876.046-1.527-.01-2.169-.106-1.227.456-1.6,1.627-1.583q5.741.072,11.484,0c1.13-.013,1.567.383,1.558,1.53-.038,4.832-.016,9.665-.016,14.57h9.283c.018-.34.053-.7.053-1.065q.006-6.626,0-13.251c0-1.433.32-1.762,1.723-1.765q5.743-.011,11.485,0c1.312,0,1.683.37,1.684,1.676q.007,21.013,0,42.026c0,1.416-.324,1.734-1.752,1.736q-5.679.009-11.358,0c-1.474,0-1.781-.32-1.782-1.833q-.005-6.626,0-13.251V33.691h-9.283c-.017.316-.054.674-.054,1.032,0,4.585-.036,9.171.02,13.756.015,1.17-.5,1.569-1.531,1.57-3.87.006-7.74,0-11.611.007-1.094,0-1.539-.535-1.531-1.593.019-2.371.006-4.743-.07-7.144-1.711,4.2-5.009,6.571-9.093,7.953A23.384,23.384,0,0,1,1978.3,50.5a40.883,40.883,0,0,1-7.44.009,31.078,31.078,0,0,1-12.962-4.3c-.236-.141-.489-.255-.831-.433,0,1.013-.056,1.927.014,2.831.083,1.073-.516,1.374-1.407,1.435-.167.012-.337,0-.5,0q-13.756,0-27.512,0c-1.6,0-1.892-.283-1.9-1.848,0-2.271,0-4.543,0-7.112-.422.836-.682,1.459-1.033,2.026-2.522,4.078-6.417,6.05-10.946,6.907a31.61,31.61,0,0,1-6.614.734,32.423,32.423,0,0,1-16.736-4.748c-1.482-.93-1.523-.98-.635-2.524,1.861-3.235,3.77-6.443,5.683-9.648a1.059,1.059,0,0,1,1.637-.4,25.79,25.79,0,0,0,8.824,3.639,11.964,11.964,0,0,0,3.87-.033c.471-.057,1.229-.694,1.221-1.054a2.063,2.063,0,0,0-.941-1.544c-2.1-1.027-4.27-1.909-6.425-2.819-4.189-1.767-8.006-3.969-9.9-8.423-1.861-4.372-1.368-10.39,2.28-14.053a17.43,17.43,0,0,1,9.986-5.024c6.992-1.075,13.474.587,19.729,4.083,0-.843.017-1.579,0-2.314-.026-.887.364-1.308,1.269-1.292,1.3.023,2.608.006,4.038.006m96.054,43.683h2.838V6.3h-11.309V7.76q0,6.5,0,13c0,1.447-.251,1.7-1.684,1.7-3.112.01-6.225-.02-9.337.015-1.154.013-1.651-.361-1.634-1.609.06-4.415.023-8.832.023-13.248V6.311h-11.4V48.234h11.4V46.952c0-4.458.041-8.917-.026-13.374-.019-1.249.454-1.634,1.615-1.621,3.07.035,6.14.008,9.21.013,1.63,0,1.832.2,1.834,1.8q.007,6.624,0,13.248c0,.4.034.807.054,1.27h8.413M1943.055,6.218h-15.612v42h28.019V38.7h-.7c-4.838,0-9.677-.024-14.515.019-1.034.009-1.451-.306-1.4-1.364a35.858,35.858,0,0,0,0-4.037c-.079-1.206.428-1.5,1.546-1.49,4.585.046,9.172.019,13.758.019h1.322V22.575h-1.317q-6.816,0-13.632,0c-1.621,0-1.649-.033-1.656-1.6q-.007-1.7,0-3.408c0-1.641.114-1.752,1.82-1.755q4.355-.007,8.709,0h6.081V6.218h-12.416m-49.761,39.57c1.314.547,2.6,1.195,3.947,1.625,6.492,2.068,13.029,2.476,19.532.106,10.279-3.745,10-15.837,3.416-20.662a42.545,42.545,0,0,0-6.889-3.541c-1.957-.939-4.007-1.693-5.927-2.7a2.481,2.481,0,0,1-1.215-2.709,2.258,2.258,0,0,1,1.991-2.005,13.152,13.152,0,0,1,4.335-.22,54.116,54.116,0,0,1,6.36,2.173l5.176-8.691a27.231,27.231,0,0,0-10.063-3.443c-4.619-.625-9.14-.4-13.359,1.9-6.648,3.627-8.384,11.67-3.75,17.529,1.915,2.421,4.586,3.745,7.338,4.941,2.338,1.016,4.7,1.982,6.979,3.125a2.765,2.765,0,0,1,1.529,3.164c-.28,1.469-1.379,2.006-2.676,2.3a10.464,10.464,0,0,1-5.837-.415c-2.559-.886-5.059-1.942-7.656-2.953l-5.465,9.227c.756.43,1.407.8,2.233,1.239m93.241-38.723c-1.787-.448-3.552-1.049-5.366-1.315-4.658-.683-9.224-.431-13.475,1.9a11.477,11.477,0,0,0-3.655,17.55c1.93,2.406,4.6,3.724,7.357,4.913,2.34,1.009,4.695,2,6.969,3.143a2.739,2.739,0,0,1,1.5,3.063,2.691,2.691,0,0,1-2.628,2.317,14.142,14.142,0,0,1-4.849-.149c-2.927-.809-5.745-2.009-8.743-3.1l-5.53,9.32c2.124.917,4.092,1.938,6.169,2.632,6.51,2.175,13.1,2.551,19.641.173,10.283-3.737,10.008-15.832,3.427-20.658a42.457,42.457,0,0,0-6.887-3.543c-1.957-.939-4.007-1.693-5.927-2.7a2.485,2.485,0,0,1-1.222-2.706,2.254,2.254,0,0,1,1.985-2.01,13.144,13.144,0,0,1,4.335-.224A54.131,54.131,0,0,1,1986,17.856l5.242-8.8c-1.6-.688-3.058-1.311-4.7-1.991m-66.319,11.587c-.473.875-.9,1.809-2.182,1.055-1.015-.6-2.031-1.205-3.1-1.7a9.948,9.948,0,0,0-5.793-.736c-.469.072-1.221.557-1.225.861a1.821,1.821,0,0,0,.837,1.381,38.97,38.97,0,0,0,5.081,2.24c4.315,1.462,8.2,3.477,10.683,7.509.438.712.758,1.5,1.159,2.3V9.593c-1.852,3.083-3.6,5.994-5.464,9.06m67.652,6.534a13.369,13.369,0,0,1,4.988,6.626V9.628c-.367.564-.658.984-.922,1.42-1.661,2.738-3.34,5.465-4.957,8.228-.5.86-1.063.825-1.8.423-1.068-.583-2.133-1.174-3.222-1.714a9.69,9.69,0,0,0-5.672-.71c-.46.059-1.211.567-1.212.87a1.834,1.834,0,0,0,.849,1.377c1.65.834,3.394,1.482,5.071,2.266C1983.256,22.845,1985.49,23.963,1987.869,25.187Z" transform="translate(-1395.085 -1.178)" fill="#030300"/>
    <path id="Path_143" data-name="Path 143" d="M1779.818,43.556c1.463,2.489,2.942,4.869,4.358,7.285.429.732-.1,1.535-1.047,1.543-4.584.034-9.17.066-13.751-.05-.569-.014-1.3-.808-1.643-1.416-2.029-3.573-3.966-7.2-6.093-11.1,0,3.818,0,7.293,0,10.768,0,1.491-.319,1.811-1.8,1.812q-5.552.006-11.1,0c-1.5,0-1.736-.246-1.736-1.72q0-21.008,0-42.015c0-1.606.1-1.7,1.728-1.7,6.477,0,12.954-.039,19.43.014a13.765,13.765,0,0,1,10.237,4.275,13,13,0,0,1,3.465,7.373,17.5,17.5,0,0,1-.781,9.109A11.713,11.713,0,0,1,1774.3,34.4c1.816,2.987,3.662,6.025,5.518,9.158M1748.531,33.34V50.551h11.522V49.217c0-3.955-.018-7.91.025-11.864a4.232,4.232,0,0,1,.542-1.37c.423.321,1.005.552,1.245.976,2.212,3.905,4.459,7.8,6.486,11.8a2.981,2.981,0,0,0,3.251,1.927c3.464-.142,6.938-.043,10.493-.043a3.306,3.306,0,0,0-.171-.47q-4.527-7.485-9.061-14.966c-.942-1.555-.838-1.538.852-2.37a15.373,15.373,0,0,0,3.915-2.652c3.852-3.743,3.662-12.45.589-16.592-2.724-3.674-6.48-5.02-10.874-5.023q-8.835-.006-17.67,0c-.365,0-.73.039-1.146.063Z" transform="translate(-1288.777 -3.528)" fill="#020200"/>
    <path id="Path_144" data-name="Path 144" d="M790.162,52.375c-4.028.064-3.284-.232-3.288-3.188-.016-13.5.005-27-.026-40.495,0-1.342.252-1.808,1.82-1.779q5.486.1,10.975,0c1.62-.027,1.89.353,1.885,1.838-.036,9.8-.018,19.6-.018,29.393V39.5h9.372c1.43,0,2.861.035,4.289-.012,1.054-.034,1.515.353,1.5,1.453-.04,3.237-.009,6.476-.017,9.714,0,1.4-.335,1.717-1.768,1.718-8.2,0-16.4,0-24.724,0m9.2-1.757h15.591v-9.6H801.864c-1.894,0-1.9,0-1.9-1.844q0-14.579,0-29.157V8.6H788.5V50.618Z" transform="translate(-570.999 -3.503)" fill="#010000"/>
    <path id="Path_145" data-name="Path 145" d="M591.925,22.243c1.9-9.383,7.3-15.6,16.223-18.753a20.164,20.164,0,0,1,10.479-.95c8.774,1.648,15.268,6.451,18.6,14.878A23.643,23.643,0,1,1,591.8,28.756a54.45,54.45,0,0,1,.13-6.514m3.179-5.5a22.342,22.342,0,0,0,22.585,31.623,22.33,22.33,0,0,0,19.73-20.267c1.09-12.411-8.375-23.608-20.644-24.178C606.918,3.457,599.755,7.868,595.1,16.738Z" transform="translate(-425.155 0)" fill="#100f09"/>
    <path id="Path_146" data-name="Path 146" d="M411.365,7.506a21.782,21.782,0,0,1,10.718-4.553c9.686-1.1,17.647,2.319,23.074,10.47A23.7,23.7,0,0,1,427.9,50.188c-14.95,1.677-27.809-11.521-25.869-26.456a23.621,23.621,0,0,1,9.333-16.226M447.7,25.669c-.016-.252-.031-.5-.049-.755a22.227,22.227,0,1,0-19.568,23.823C439.495,47.429,447.954,37.594,447.7,25.669Z" transform="translate(-283.205 -0.394)" fill="#100f09"/>
    <path id="Path_147" data-name="Path 147" d="M229.028,49.044c-10.082-3.614-16.021-11.545-16.544-21.987-.509-10.169,6.519-20.141,16.2-23.284a22.711,22.711,0,0,1,10.757-1c11.932,1.985,19.831,11.372,20.282,22.547a23.538,23.538,0,0,1-20.878,24.629,22.576,22.576,0,0,1-9.823-.9M214.507,21.127c-.151.868-.34,1.732-.448,2.606A22.234,22.234,0,1,0,239.376,4.314C227.58,2.414,217.211,10.233,214.507,21.127Z" transform="translate(-141.635 -0.211)" fill="#0f0e09"/>
    <path id="Path_148" data-name="Path 148" d="M70.24,28.47a23.646,23.646,0,0,1-46.915,2.1c-2.148-12.437,6.324-24.8,18.462-27.225A23.753,23.753,0,0,1,70.24,28.47m-44.9-8.161A22.242,22.242,0,1,0,48.158,4.355C37.66,3.77,28.813,9.9,25.338,20.309Z" transform="translate(0 -0.472)" fill="#0f0e09"/>
    <path id="Path_149" data-name="Path 149" d="M920.454,7.436a5.048,5.048,0,0,1,.15,1.2q.005,21.01,0,42.019c0,1.489-.23,1.733-1.719,1.736q-5.615.012-11.23,0c-1.319,0-1.689-.365-1.689-1.67q-.007-21.136-.015-42.272c0-1.044.334-1.521,1.444-1.511,3.911.038,7.823,0,11.735.032a3.879,3.879,0,0,1,1.321.462m-6.536,1.126h-6.256v42h11.345v-42Z" transform="translate(-660.056 -3.526)"/>
    <path id="Path_150" data-name="Path 150" d="M1148.659,47.8c-4.867,0-9.621.023-14.375-.02a1.724,1.724,0,0,0-1.93,1.358c-.6,1.828-1.3,3.627-2.042,5.4a1.43,1.43,0,0,1-1,.786q-19.627.058-39.254.026a2.206,2.206,0,0,1-.418-.094V13.353h28.042v9.53h-1.321q-6.753,0-13.505,0c-1.68,0-1.791.119-1.794,1.781,0,1.178.056,2.36-.017,3.533-.068,1.1.339,1.478,1.446,1.467,4.628-.045,9.256-.019,13.884-.019h1.3v9.27h-1.357c-4.586,0-9.172.031-13.758-.022-1.157-.013-1.592.354-1.517,1.519a29.746,29.746,0,0,1,0,3.784c-.076,1.187.307,1.618,1.557,1.6,4.585-.068,9.172-.027,13.758-.027h1.386c0,1.781-.04,3.492.026,5.2a4.3,4.3,0,0,0,.553,1.345c.395-.341.976-.6,1.158-1.034q7.729-18.366,15.359-36.774a1.629,1.629,0,0,1,1.816-1.244c3.027.077,6.059.068,9.087,0a1.63,1.63,0,0,1,1.841,1.2q8.131,19.629,16.362,39.218a2.308,2.308,0,0,0,.352.794,1.18,1.18,0,0,0,.854.347.99.99,0,0,0,.575-.654,5.116,5.116,0,0,0,.047-1.255q0-19.059,0-38.119V13.362h57.371v9.521c-2.063,0-4.1,0-6.143,0-3.991-.008-3.318-.168-3.327,3.27-.026,9.214-.009,18.428-.009,27.642v1.474H1202.23V53.779q0-14.389,0-28.778c0-2-.115-2.117-2.148-2.118q-10.413,0-20.826,0c-1.9,0-1.952.054-1.953,2,0,1.01.067,2.025-.017,3.028-.1,1.24.443,1.641,1.608,1.63,3.45-.033,6.9-.012,10.35-.012h1.088V39.04h-1.462c-3.324,0-6.648.021-9.971-.012-1.155-.011-1.641.358-1.622,1.615.068,4.459.026,8.919.026,13.379V55.3h-24.86c-.761-2.021-1.5-4.141-2.377-6.207-.22-.522-.852-.869-1.407-1.3m-5.378-16.6c-.4-1.1-.762-2.213-1.218-3.288a1.1,1.1,0,0,0-.8-.584,1.074,1.074,0,0,0-.812.566q-1.681,4.452-3.265,8.941c-.308.869.03,1.373,1.005,1.37,2.012-.006,4.025.015,6.037-.008,1.1-.012,1.409-.465,1.041-1.515C1144.649,34.913,1143.992,33.153,1143.281,31.2Z" transform="translate(-797.369 -8.25)" fill="#fdd100"/>
    <path id="Path_151" data-name="Path 151" d="M1633.079,55.689H1627.7V13.7h28v9.511h-5.784c-3.071,0-6.143.022-9.214-.011-1.15-.013-1.718.345-1.621,1.612a29.5,29.5,0,0,1,.006,3.784c-.054,1.047.351,1.4,1.387,1.394,4.8-.036,9.593-.016,14.389-.016h.832v9.27h-1.277c-4.586,0-9.172.035-13.757-.024-1.217-.016-1.66.374-1.577,1.588a30.6,30.6,0,0,1,0,3.784c-.064,1.129.3,1.545,1.5,1.53,5-.062,10.01-.026,15.109-.026v9.593Z" transform="translate(-1199.597 -8.576)" fill="#fcd100"/>
    <path id="Path_152" data-name="Path 152" d="M999.638,29.906c.253.181.5.357.5.535.024,2.937.017,5.875.017,8.967h-3.582c-2.65,0-5.3.026-7.951-.012-1.171-.017-1.62.4-1.6,1.632.063,4.834.026,9.67.026,14.6H975.612V13.754h25.575v9.5h-6.67c-2.019,0-4.039.011-6.058,0-.967-.007-1.49.325-1.433,1.406a35.247,35.247,0,0,1,0,3.785c-.064,1.143.489,1.473,1.511,1.468C992.2,29.89,995.857,29.9,999.638,29.906Z" transform="translate(-712.129 -8.618)" fill="#fcd100"/>
    <path id="Path_153" data-name="Path 153" d="M2339.109,55.686h-8.288c-.021-.463-.054-.867-.054-1.27q-.005-6.624,0-13.248c0-1.6-.2-1.8-1.834-1.8-3.07-.006-6.14.022-9.21-.013-1.161-.013-1.634.372-1.615,1.621.067,4.457.026,8.916.026,13.374v1.282h-11.4V13.705h11.4v1.305c0,4.416.037,8.833-.023,13.248-.017,1.248.48,1.622,1.634,1.609,3.112-.036,6.224-.005,9.336-.015,1.433,0,1.681-.255,1.684-1.7q.013-6.5,0-13v-1.46h11.308V55.686Z" transform="translate(-1707.203 -8.573)" fill="#fdd100"/>
    <path id="Path_154" data-name="Path 154" d="M2056.4,13.372h12.29v9.594h-6.081q-4.355,0-8.709,0c-1.706,0-1.816.114-1.82,1.755,0,1.136,0,2.272,0,3.408.006,1.564.035,1.6,1.655,1.6q6.816.006,13.632,0h1.317V39h-1.322c-4.586,0-9.172.027-13.758-.019-1.118-.011-1.625.284-1.545,1.49a35.916,35.916,0,0,1,0,4.037c-.05,1.058.367,1.374,1.4,1.364,4.838-.043,9.677-.019,14.515-.019h.7v9.518h-28.019v-42Z" transform="translate(-1508.301 -8.332)" fill="#fcd100"/>
    <path id="Path_155" data-name="Path 155" d="M1898.689,50.554c-.739-.4-1.389-.774-2.146-1.2l5.465-9.227c2.6,1.011,5.1,2.067,7.656,2.953a10.465,10.465,0,0,0,5.838.415c1.3-.3,2.4-.835,2.675-2.3a2.764,2.764,0,0,0-1.529-3.164c-2.276-1.143-4.641-2.108-6.979-3.125-2.752-1.2-5.424-2.52-7.339-4.941-4.633-5.859-2.9-13.9,3.751-17.529,4.22-2.3,8.74-2.53,13.359-1.9a27.232,27.232,0,0,1,10.063,3.443l-5.176,8.691a54.124,54.124,0,0,0-6.36-2.173,13.152,13.152,0,0,0-4.335.22,2.257,2.257,0,0,0-1.991,2.005,2.481,2.481,0,0,0,1.215,2.709c1.92,1.006,3.969,1.76,5.926,2.7a42.531,42.531,0,0,1,6.889,3.541c6.585,4.825,6.863,16.917-3.416,20.662-6.5,2.37-13.041,1.961-19.532-.106C1901.373,51.782,1900.09,51.135,1898.689,50.554Z" transform="translate(-1400.568 -5.978)" fill="#fdd200"/>
    <path id="Path_156" data-name="Path 156" d="M2190.657,11.88c1.551.652,3.005,1.276,4.608,1.963l-5.242,8.8a54.127,54.127,0,0,0-6.367-2.174,13.143,13.143,0,0,0-4.335.224,2.254,2.254,0,0,0-1.986,2.01,2.485,2.485,0,0,0,1.223,2.706c1.921,1,3.97,1.757,5.927,2.7a42.444,42.444,0,0,1,6.887,3.543c6.582,4.827,6.857,16.921-3.426,20.658-6.546,2.379-13.131,2-19.641-.173-2.077-.694-4.044-1.715-6.169-2.632l5.53-9.32c3,1.087,5.817,2.286,8.743,3.1a14.143,14.143,0,0,0,4.849.149,2.691,2.691,0,0,0,2.628-2.317,2.739,2.739,0,0,0-1.5-3.063c-2.274-1.145-4.629-2.134-6.969-3.143-2.758-1.189-5.427-2.506-7.357-4.913a11.477,11.477,0,0,1,3.655-17.55c4.251-2.334,8.818-2.586,13.475-1.9A56.177,56.177,0,0,1,2190.657,11.88Z" transform="translate(-1599.112 -5.965)" fill="#fdd200"/>
    <path id="Path_159" data-name="Path 159" d="M1753.069,38.014V13.433c.417-.024.782-.063,1.146-.063q8.835-.006,17.67,0c4.394,0,8.149,1.349,10.874,5.023,3.073,4.143,3.263,12.849-.589,16.592a15.373,15.373,0,0,1-3.914,2.652c-1.69.831-1.794.815-.852,2.37q4.533,7.481,9.061,14.966a3.322,3.322,0,0,1,.171.47c-3.555,0-7.029-.1-10.493.043a2.981,2.981,0,0,1-3.251-1.927c-2.028-4-4.275-7.893-6.487-11.8-.24-.424-.822-.655-1.245-.976a4.246,4.246,0,0,0-.542,1.37c-.043,3.954-.025,7.909-.025,11.864v1.334h-11.522V38.014m19.926-12.922a3.463,3.463,0,0,0-2.781-2.755c-1.46-.3-2.969-.353-4.457-.507-.9-.093-1.175.409-1.169,1.214.012,1.761-.03,3.522.01,5.282.085,3.83-.835,3.581,3.74,3.342C1772.119,31.472,1773.831,29,1772.995,25.092Z" transform="translate(-1293.314 -8.328)" fill="#fdd100"/>
    <path id="Path_160" data-name="Path 160" d="M804.2,55.626H793.46V13.611h11.47v1.418q0,14.579,0,29.157c0,1.843,0,1.843,1.9,1.844h13.091v9.6Z" transform="translate(-575.962 -8.511)" fill="#fcd100"/>
    <path id="Path_161" data-name="Path 161" d="M598.956,21.557c4.613-8.782,11.776-13.193,21.633-12.735,12.27.571,21.734,11.767,20.644,24.178a22.242,22.242,0,1,1-42.277-11.444m34.383,12.269-1.193.408.634,1.363a14.068,14.068,0,0,1-27.12-.009,9.42,9.42,0,0,0,.611-1.364.967.967,0,0,0-.655-.4,17.617,17.617,0,0,0-2.628.762.9.9,0,0,0-.3.829c.07.211.484.361.772.428.195.046.433-.1.618-.148,2.7,6.764,7.153,11.326,14.665,11.534,8.054.223,12.824-4.481,15.509-11.182l1.553-.655a5.493,5.493,0,0,0-.948-1.115,4.96,4.96,0,0,0-1.514-.453M623.9,20.363a9.145,9.145,0,0,0-.112,8.479c.736,1.529,2.089,1.542,2.828.031a9.057,9.057,0,0,0-.032-8.367c-.66-1.317-1.451-1.342-2.684-.142m-12.715,2.223a9.26,9.26,0,0,0,.729,6.242c.81,1.481,2.195,1.518,2.8-.039a13.378,13.378,0,0,0,.9-4.612,8.919,8.919,0,0,0-.94-3.719c-.655-1.408-1.884-1.385-2.68-.056A11.53,11.53,0,0,0,611.186,22.586Z" transform="translate(-428.969 -4.907)" fill="#fdd200"/>
    <path id="Path_162" data-name="Path 162" d="M451.861,30.029a22.489,22.489,0,1,1-.054-.88c.018.252.033.5.054.88m-11.5-9.183-8.405,5.14h12.913l-.068-1.517h-7.533l4.379-2.71a4.589,4.589,0,0,0-1.286-.912m-20.8,4.013h-4.174v1.346h12.644l.047-.261-8.724-4.97-.725,1.254,4.058,2.337-.121.293Z" transform="translate(-287.36 -4.628)" fill="#fdd200"/>
    <path id="Path_163" data-name="Path 163" d="M218.777,25.529a22.24,22.24,0,0,1,43.716,7.647,22.235,22.235,0,1,1-44.192-4.94c.108-.874.3-1.738.476-2.707m27.256,7.748a15.151,15.151,0,0,1,8.327,8.659c.164.4-.109.966-.042,1.434.049.343.371.952.488.932a12.867,12.867,0,0,0,2.39-.65.8.8,0,0,0,.281-.724c-.053-.194-.394-.368-.639-.434a1.95,1.95,0,0,0-.711.087c-2.817-6.626-7.146-11.342-14.8-11.446-7.962-.107-12.605,4.545-15.327,11.188l-1.551.56c.34.372.618.866,1.038,1.083a3.725,3.725,0,0,0,1.692.375c.716-.007,1.137-.3.559-1.107a1.345,1.345,0,0,1-.161-1.078,14.831,14.831,0,0,1,5.647-7.391,13.74,13.74,0,0,1,12.811-1.49m-1.074-12.744a9.47,9.47,0,0,0,.035,7.938,2.312,2.312,0,0,0,1.548,1.219c.456.036,1.179-.646,1.432-1.177a9.1,9.1,0,0,0,.057-7.92c-.77-1.712-1.819-1.744-3.072-.061m-9.332-.781c-1.129-.777-1.852-.647-2.478.665a9.071,9.071,0,0,0-.08,7.909,2.4,2.4,0,0,0,1.611,1.29c.478.032,1.252-.707,1.485-1.273A8.975,8.975,0,0,0,235.627,19.752Z" transform="translate(-145.877 -4.714)" fill="#fdd100"/>
    <path id="Path_164" data-name="Path 164" d="M29.628,24.535C33.073,14.219,41.919,8.092,52.417,8.678A22.307,22.307,0,1,1,29.628,24.535m10.477,17.92c7.126,7.616,21.224,6.52,26-6.48l1.57-.74a7.652,7.652,0,0,0-1.009-1.091,1.834,1.834,0,0,0-1.066-.337,9.964,9.964,0,0,0-1.595.277l.637,1.464C62.463,41.773,57.082,45.864,50.995,45.8A14.572,14.572,0,0,1,37.534,35.616l.577-1.576a10.85,10.85,0,0,0-1.5-.249,1.552,1.552,0,0,0-.956.269,11.694,11.694,0,0,0-1.176,1.225l1.091.43c1.542,2.313,2.976,4.462,4.535,6.74M45.08,19.33c-.48.428-1.164.764-1.406,1.3a9.132,9.132,0,0,0,.025,7.9c.247.529.965,1.2,1.429,1.172a2.268,2.268,0,0,0,1.549-1.187,9.088,9.088,0,0,0,.012-7.9c-.244-.533-.931-.863-1.608-1.286M59.2,22.416a5.726,5.726,0,0,0-.577-1.645c-.417-.559-1.067-1.331-1.593-1.314-.543.018-1.281.776-1.546,1.38A9.038,9.038,0,0,0,55.5,28.4c.27.6,1.027,1.356,1.561,1.358S58.325,29,58.634,28.4A9.515,9.515,0,0,0,59.2,22.416Z" transform="translate(-4.259 -4.794)" fill="#fdd100"/>
    <path id="Path_165" data-name="Path 165" d="M919.1,13.358h4.963v42H912.721v-42Z" transform="translate(-665.115 -8.322)" fill="#fbd000"/>
    <path id="Path_166" data-name="Path 166" d="M1283.787,72.957c.677,1.858,1.334,3.617,1.956,5.389.368,1.05.058,1.5-1.041,1.515-2.012.022-4.025,0-6.037.008-.976,0-1.313-.5-1.005-1.37q1.589-4.486,3.264-8.941a1.074,1.074,0,0,1,.812-.566,1.1,1.1,0,0,1,.8.584c.456,1.075.82,2.188,1.253,3.38m-.091,5.372c.074-.03.213-.083.212-.087-.685-2.016-1.38-4.028-2.173-6.325l-2.323,6.416C1280.81,78.334,1282.14,78.334,1283.7,78.33Z" transform="translate(-937.841 -49.911)" fill="#040300"/>
    <path id="Path_167" data-name="Path 167" d="M1807.08,50.225c.819,3.8-.894,6.278-4.675,6.475-4.575.239-3.655.487-3.74-3.342-.039-1.76,0-3.521-.01-5.282-.006-.805.27-1.308,1.169-1.214,1.488.154,3,.211,4.457.507a3.5,3.5,0,0,1,2.8,2.857m-5.043-1.814H1800.3V55.33a29.088,29.088,0,0,0,3.205-.492c1.915-.51,2.287-1.275,2.022-4.078-.128-1.359-.725-1.632-2.459-2.1C1802.8,48.586,1802.52,48.554,1802.037,48.411Z" transform="translate(-1327.382 -33.359)" fill="#040300"/>
    <path id="Path_168" data-name="Path 168" d="M650.73,107.967a4.767,4.767,0,0,1,1.411.439,5.489,5.489,0,0,1,.948,1.115l-1.553.655c-2.685,6.7-7.455,11.405-15.509,11.182-7.512-.208-11.97-4.771-14.665-11.534-.184.05-.423.193-.618.148-.288-.068-.7-.217-.772-.428a.9.9,0,0,1,.3-.829,17.614,17.614,0,0,1,2.628-.762.967.967,0,0,1,.655.4,9.414,9.414,0,0,1-.611,1.364,14.068,14.068,0,0,0,27.12.009l-.634-1.363C649.832,108.224,650.229,108.088,650.73,107.967Z" transform="translate(-446.257 -79.033)" fill="#0e0c02"/>
    <path id="Path_169" data-name="Path 169" d="M700.889,51.934c1.18-1.123,1.97-1.1,2.63.219a9.057,9.057,0,0,1,.032,8.367c-.739,1.511-2.092,1.5-2.828-.031A9.152,9.152,0,0,1,700.889,51.934Z" transform="translate(-505.903 -36.555)" fill="#070601"/>
    <path id="Path_170" data-name="Path 170" d="M653.091,53.908a11.717,11.717,0,0,1,.79-2.079c.8-1.329,2.026-1.352,2.681.056A8.922,8.922,0,0,1,657.5,55.6a13.378,13.378,0,0,1-.9,4.612c-.609,1.557-1.993,1.521-2.8.039A9.355,9.355,0,0,1,653.091,53.908Z" transform="translate(-470.853 -36.334)" fill="#060501"/>
    <path id="Path_171" data-name="Path 171" d="M513.175,57.481a8.474,8.474,0,0,1,1.208.954L510,61.146h7.533l.068,1.517H504.691C507.59,60.891,510.343,59.207,513.175,57.481Z" transform="translate(-360.093 -41.306)" fill="#110e00"/>
    <path id="Path_172" data-name="Path 172" d="M443.354,62.041h2.884l.121-.293L442.3,59.411l.725-1.254,8.724,4.97-.047.261H439.058V62.042Z" transform="translate(-311.03 -41.811)" fill="#0d0b00"/>
    <path id="Path_173" data-name="Path 173" d="M264.642,100.17a13.708,13.708,0,0,0-12.72,1.529,14.831,14.831,0,0,0-5.647,7.391,1.345,1.345,0,0,0,.161,1.078c.579.808.158,1.1-.559,1.107a3.725,3.725,0,0,1-1.692-.375c-.42-.217-.7-.711-1.038-1.083l1.551-.56c2.722-6.643,7.365-11.3,15.327-11.188,7.656.1,11.985,4.82,14.8,11.446a1.949,1.949,0,0,1,.711-.087c.245.066.586.239.639.434a.8.8,0,0,1-.281.724,12.868,12.868,0,0,1-2.39.65c-.117.019-.439-.589-.489-.932-.067-.469.206-1.031.042-1.434A15.212,15.212,0,0,0,264.642,100.17Z" transform="translate(-164.577 -71.646)" fill="#120f02"/>
    <path id="Path_174" data-name="Path 174" d="M321.931,52.275c1.2-1.6,2.252-1.57,3.022.142a9.1,9.1,0,0,1-.058,7.92c-.253.531-.976,1.212-1.432,1.177a2.312,2.312,0,0,1-1.548-1.219A9.474,9.474,0,0,1,321.931,52.275Z" transform="translate(-222.8 -36.538)" fill="#090701"/>
    <path id="Path_175" data-name="Path 175" d="M277.348,51.671a8.993,8.993,0,0,1,.473,8.521c-.232.566-1.007,1.3-1.485,1.273a2.4,2.4,0,0,1-1.611-1.29,9.071,9.071,0,0,1,.08-7.909C275.432,50.954,276.155,50.824,277.348,51.671Z" transform="translate(-187.534 -36.562)" fill="#070601"/>
    <path id="Path_176" data-name="Path 176" d="M57.189,116.864c-1.5-2.214-2.93-4.363-4.472-6.676l-1.091-.43a11.694,11.694,0,0,1,1.176-1.225,1.552,1.552,0,0,1,.956-.269,10.848,10.848,0,0,1,1.5.249l-.577,1.576a14.572,14.572,0,0,0,13.461,10.182c6.087.065,11.469-4.025,13.652-10.251l-.637-1.464a9.965,9.965,0,0,1,1.595-.277,1.834,1.834,0,0,1,1.066.337,7.652,7.652,0,0,1,1.009,1.091l-1.57.74C78.476,123.449,64.378,124.544,57.189,116.864Z" transform="translate(-21.406 -79.268)" fill="#0e0c02"/>
    <path id="Path_177" data-name="Path 177" d="M86.924,50.987c.58.423,1.267.753,1.511,1.286a9.088,9.088,0,0,1-.012,7.9,2.268,2.268,0,0,1-1.549,1.187c-.463.028-1.182-.643-1.429-1.172a9.132,9.132,0,0,1-.025-7.9C85.662,51.751,86.346,51.415,86.924,50.987Z" transform="translate(-46.005 -36.451)" fill="#060501"/>
    <path id="Path_178" data-name="Path 178" d="M136.138,54.554a9.432,9.432,0,0,1-.589,5.885c-.308.6-1.037,1.352-1.572,1.35s-1.292-.757-1.561-1.358a9.038,9.038,0,0,1-.016-7.559c.265-.6,1-1.362,1.546-1.38.526-.018,1.176.755,1.593,1.314A6.028,6.028,0,0,1,136.138,54.554Z" transform="translate(-81.174 -36.829)" fill="#060501"/>
  </g>
</svg>
